# xmcd
#
# Track frame offsets: 
#        150
#        25388
#        44449
#        64599
#        81981
#        98022
#        113934
#        133516
#        153098
#        170987
#        183508
#        197945
#        215887
#        234705
#
# Disc length: 3405 seconds
#
# Revision: 0
# Processed by: cddbd v1.5.2PL0 Copyright (c) Steve Scherf et al.
# Submitted via: ExactAudioCopy v0.99pb4
#
DISCID=cd0d4b0e
DTITLE=The Road to Escandido - JJ Cale and Eric Clapton
DYEAR=1900
DGENRE=Blues
TTITLE0=Danger
TTITLE1=Heads In Georgia
TTITLE2=Missing Person
TTITLE3=When This War Is Over
TTITLE4=Sporting Life Blues
TTITLE5=Dead End Road
TTITLE6=It's Easy
TTITLE7=Hard To Thrill
TTITLE8=Anyway The Wind Blows
TTITLE9=Three Little Girls
TTITLE10=Don't Cry Sister
TTITLE11=Last Will And Testament
TTITLE12=Who Am I Telling You
TTITLE13=Ride The River
EXTD=
EXTT0=
EXTT1=
EXTT2=
EXTT3=
EXTT4=
EXTT5=
EXTT6=
EXTT7=
EXTT8=
EXTT9=
EXTT10=
EXTT11=
EXTT12=
EXTT13=
PLAYORDER=
